<svg xmlns="http://www.w3.org/2000/svg" viewBox="0 0 96 120">
  <g fill="none" stroke="#1659A5" stroke-width="6" stroke-linecap="round" stroke-linejoin="round">
    <path d="M48 6c-18.2 0-33 14.8-33 33.1 0 10.3 5 19.8 13.3 26L28 74c0 3.8 3.1 6.9 6.9 6.9H61c3.8 0 6.9-3.1 6.9-6.9l-.3-8.9C74.1 58.6 81 49.1 81 39.1 81 20.8 66.2 6 48 6z"/>
    <path d="M41 80h14M36 90h24M40 104h16"/>
    <path d="M32.5 28.6c3.2-3.3 9.7-3.3 12.9 0m18.1 0c-3.2-3.3-9.7-3.3-12.9 0"/>
    <path d="M45.4 22.1c-3.6-3.6-9.4-3.6-13 0-3.6 3.6-3.6 9.4 0 13l6.3 6.3m18.9-19.3c3.6-3.6 9.4-3.6 13 0s3.6 9.4 0 13l-6.3 6.3"/>
    <path d="M48 33v18M57.5 39.5h10.5M28 39.5h10.5"/>
  </g>
</svg>
