<svg xmlns="http://www.w3.org/2000/svg" viewBox="0 0 120 96">
  <g fill="none" stroke="#1659A5" stroke-width="6" stroke-linecap="round" stroke-linejoin="round">
    <path d="M42 74H26c-11 0-20-9-20-20s9-20 20-20c2 0 4 .3 5.9.9C34.2 25 42.8 18 52.9 18c10.9 0 20 7.9 21.8 18.4C78.9 36.1 83 36 86 36c15.5 0 28 12.5 28 28s-12.5 28-28 28H74"/>
    <path d="M42 74v22M74 74v22"/>
    <path d="M58 74v10"/>
    <circle cx="42" cy="96" r="9"/>
    <circle cx="58" cy="84" r="9"/>
    <circle cx="74" cy="96" r="9"/>
  </g>
</svg>
