<svg xmlns="http://www.w3.org/2000/svg" viewBox="0 0 112 112">
  <g fill="none" stroke="#1659A5" stroke-width="6" stroke-linecap="round" stroke-linejoin="round">
    <path d="M56 16c2.5 0 4.9.3 7.2.9l3.5 10.5 10.9 3.5c1.6 2.6 2.9 5.5 3.8 8.5l-7.8 8.4.9 11.3-10.8 3.4L58.5 72l-10.9 3.5L38 65.8l.9-11.3-7.8-8.4c.9-3 2.2-5.9 3.8-8.5l10.9-3.5 3.5-10.5C51.1 16.3 53.5 16 56 16z"/>
    <circle cx="56" cy="56" r="16"/>
    <path d="M72 56h24M80 44h16M80 68h16"/>
    <circle cx="96" cy="44" r="8"/>
    <circle cx="96" cy="68" r="8"/>
    <circle cx="96" cy="56" r="8"/>
  </g>
</svg>
