<svg xmlns="http://www.w3.org/2000/svg" viewBox="0 0 112 96">
  <g fill="none" stroke="#1659A5" stroke-width="6" stroke-linecap="round" stroke-linejoin="round">
    <path d="M54 12C29.5 12 10 31.5 10 56s19.5 44 44 44"/>
    <path d="M54 12c24.5 0 44 19.5 44 44s-19.5 44-44 44"/>
    <path d="M54 12v88M10 56h88"/>
    <path d="M54 12c-12 16-18 28-18 44s6 28 18 44"/>
    <path d="M54 12c12 16 18 28 18 44s-6 28-18 44"/>
    <path d="M98 56c0-15.5-12.5-28-28-28-8.9 0-16.8 4.1-22 10.6"/>
    <path d="M70 84c10.5 0 19-8.5 19-19 0-6.8-3.6-12.7-9-16"/>
  </g>
</svg>
