<svg xmlns="http://www.w3.org/2000/svg" aria-hidden="true">
  <symbol id="icon-process-fragmented" viewBox="0 0 24 24" fill="none" stroke="currentColor">
    <path stroke-linecap="round" stroke-linejoin="round" stroke-width="1.5" d="M10.5 6h9.75M10.5 6a1.5 1.5 0 11-3 0m3 0a1.5 1.5 0 00-3 0M3.75 6H7.5m3 12h9.75m-9.75 0a1.5 1.5 0 01-3 0m3 0a1.5 1.5 0 00-3 0m-3.75 0H7.5m9-6h3.75m-3.75 0a1.5 1.5 0 01-3 0m3 0a1.5 1.5 0 00-3 0m-9.75 0h9.75" />
  </symbol>
  <symbol id="icon-info-unreliable" viewBox="0 0 24 24" fill="none" stroke="currentColor">
    <path stroke-linecap="round" stroke-linejoin="round" stroke-width="1.5" d="M12 9v3.75m9-.75a9 9 0 11-18 0 9 9 0 0118 0zm-9 3.75h.008v.008H12v-.008z" />
  </symbol>
  <symbol id="icon-late-decisions" viewBox="0 0 24 24" fill="none" stroke="currentColor">
    <path stroke-linecap="round" stroke-linejoin="round" stroke-width="1.5" d="M12 6v6h4.5m4.5 0a9 9 0 11-18 0 9 9 0 0118 0z" />
  </symbol>
  <symbol id="icon-traceability" viewBox="0 0 24 24" fill="none" stroke="currentColor">
    <path stroke-linecap="round" stroke-linejoin="round" stroke-width="1.5" d="M3.75 6.75h16.5M3.75 12h16.5m-16.5 5.25H12" />
  </symbol>
  <symbol id="icon-mobile-clarity" viewBox="0 0 24 24" fill="none" stroke="currentColor">
    <path stroke-linecap="round" stroke-linejoin="round" stroke-width="1.5" d="M10.5 1.5H8.25A2.25 2.25 0 006 3.75v16.5a2.25 2.25 0 002.25 2.25h7.5A2.25 2.25 0 0018 20.25V3.75a2.25 2.25 0 00-2.25-2.25H13.5m-3 0V3h3V1.5m-3 0h3m-3 18.75h3" />
  </symbol>
  <symbol id="icon-shield-check" viewBox="0 0 24 24" fill="none" stroke="currentColor">
    <path stroke-linecap="round" stroke-linejoin="round" stroke-width="1.5" d="M9 12.75L11.25 15 15 9.75m-3-7.036A11.959 11.959 0 013.598 6 11.99 11.99 0 003 9.749c0 5.592 3.824 10.29 9 11.622 5.176-1.332 9-6.03 9-11.622 0-1.31-.21-2.571-.598-3.751h-.152c-3.196 0-6.1-1.248-8.25-3.286zm0 13.036h.008v.008h-.008v-.008z" />
  </symbol>
  <symbol id="icon-globe-anticipate" viewBox="0 0 24 24" fill="none" stroke="currentColor">
    <path stroke-linecap="round" stroke-linejoin="round" stroke-width="1.5" d="M15.042 21.672L13.684 16.6m0 0l-2.51 2.225.569-9.47 5.227 7.917-3.286-.672zm-7.518-.267A8.25 8.25 0 1120.25 10.5M8.288 14.212A5.25 5.25 0 1117.25 10.5" />
  </symbol>
  <symbol id="icon-lightning" viewBox="0 0 24 24" fill="none" stroke="currentColor">
    <path stroke-linecap="round" stroke-linejoin="round" stroke-width="1.5" d="M3.75 13.5l10.5-11.25L12 10.5h8.25L9.75 21.75 12 13.5H3.75z" />
  </symbol>
  <symbol id="icon-growth" viewBox="0 0 24 24" fill="none" stroke="currentColor">
    <path stroke-linecap="round" stroke-linejoin="round" stroke-width="1.5" d="M2.25 18L9 11.25l4.306 4.307a11.95 11.95 0 015.814-5.519l2.74-1.22m0 0l-3.75-2.25m3.75 2.25l-4.125 7.5" />
  </symbol>
  <symbol id="icon-expand" viewBox="0 0 24 24" fill="none" stroke="currentColor">
    <path stroke-linecap="round" stroke-linejoin="round" stroke-width="1.5" d="M3 13.5l6.75-6.75m0 0l6.75 6.75m-6.75-6.75v12.75m11.25-3.75l-6.75 6.75m0 0l-6.75-6.75m6.75 6.75V3.75" />
  </symbol>
  <symbol id="icon-ticker-bars" viewBox="0 0 24 24" fill="none" stroke="currentColor">
    <path stroke-linecap="round" stroke-linejoin="round" stroke-width="1.8" d="M4 20h16M6.5 16V8.5M11.5 16V6M16.5 16V11" />
  </symbol>
  <symbol id="icon-ticker-clock" viewBox="0 0 24 24" fill="none" stroke="currentColor">
    <circle cx="12" cy="12" r="8" stroke-width="1.8" />
    <path stroke-linecap="round" stroke-linejoin="round" stroke-width="1.8" d="M12 7.5v4.8l3 1.7" />
  </symbol>
  <symbol id="icon-ticker-shield" viewBox="0 0 24 24" fill="none" stroke="currentColor">
    <path stroke-linecap="round" stroke-linejoin="round" stroke-width="1.8" d="M12 4.2l6 3.3v4.5c0 3.6-2.7 6.8-6 7.5-3.3-.7-6-3.9-6-7.5V7.5l6-3.3z" />
    <path stroke-linecap="round" stroke-linejoin="round" stroke-width="1.8" d="M9.2 12.2l2.1 2.1 3.6-3.6" />
  </symbol>
  <symbol id="icon-ticker-bolt" viewBox="0 0 24 24" fill="none" stroke="currentColor">
    <path stroke-linecap="round" stroke-linejoin="round" stroke-width="1.8" d="M7 14.5l5.5-9v6h6.5l-5.5 9v-6h-6.5z" />
  </symbol>
  <symbol id="icon-ticker-target" viewBox="0 0 24 24" fill="none" stroke="currentColor">
    <circle cx="12" cy="12" r="8" stroke-width="1.8" />
    <circle cx="12" cy="12" r="4.5" stroke-width="1.8" />
    <circle cx="12" cy="12" r="1.6" fill="currentColor" stroke="none" />
    <path stroke-linecap="round" stroke-linejoin="round" stroke-width="1.8" d="M12 4v2.5M20 12h-2.5M12 20v-2.5M4 12h2.5" />
  </symbol>
  <symbol id="icon-ticker-check" viewBox="0 0 24 24" fill="none" stroke="currentColor">
    <rect x="4.5" y="5" width="15" height="14" rx="2.5" stroke-width="1.8" />
    <path stroke-linecap="round" stroke-linejoin="round" stroke-width="1.8" d="M8.5 12.5l2.5 2.5 4.5-5" />
  </symbol>
  <symbol id="icon-play" viewBox="0 0 20 20" fill="currentColor">
    <path fill-rule="evenodd" d="M10 18a8 8 0 100-16 8 8 0 000 16zM9.555 7.168A1 1 0 008 8v4a1 1 0 001.555.832l3-2a1 1 0 000-1.664l-3-2z" clip-rule="evenodd" />
  </symbol>
  <symbol id="icon-close" viewBox="0 0 24 24" fill="none" stroke="currentColor">
    <path stroke-linecap="round" stroke-linejoin="round" stroke-width="2" d="M6 18L18 6M6 6l12 12" />
  </symbol>
  <symbol id="icon-external-link" viewBox="0 0 20 20" fill="currentColor">
    <path d="M11 3a1 1 0 100 2h2.586l-6.293 6.293a1 1 0 101.414 1.414L15 6.414V9a1 1 0 102 0V4a1 1 0 00-1-1h-5z"></path>
    <path d="M5 5a2 2 0 00-2 2v8a2 2 0 002 2h8a2 2 0 002-2v-3a1 1 0 10-2 0v3H5V7h3a1 1 0 000-2H5z"></path>
  </symbol>
  <symbol id="icon-moon" viewBox="0 0 20 20" fill="currentColor">
    <path d="M17.293 13.293A8 8 0 016.707 2.707a8.001 8.001 0 1010.586 10.586z"></path>
  </symbol>
  <symbol id="icon-sun" viewBox="0 0 20 20" fill="currentColor">
    <path d="M10 2a1 1 0 011 1v1a1 1 0 11-2 0V3a1 1 0 011-1zm4 8a4 4 0 11-8 0 4 4 0 018 0zm-.464 4.95l.707.707a1 1 0 001.414-1.414l-.707-.707a1 1 0 00-1.414 1.414zm2.12-10.607a1 1 0 010 1.414l-.707.707a1 1 0 11-1.414-1.414l.707-.707a1 1 0 011.414 0zM17 11a1 1 0 100-2h-1a1 1 0 100 2h1zm-7 4a1 1 0 011 1v1a1 1 0 11-2 0v-1a1 1 0 011-1zM5.05 6.464A1 1 0 106.465 5.05l-.708-.707a1 1 0 00-1.414 1.414l.707.707zm-.707 10.607a1 1 0 010-1.414l.707-.707a1 1 0 111.414 1.414l-.707-.707a1 1 0 01-1.414 0zM1 11a1 1 0 100-2H0a1 1 0 100 2h1z"></path>
  </symbol>
</svg>
